<svg width="239" height="19" fill="none" xmlns="http://www.w3.org/2000/svg"><g clip-path="url(#clip0_2002_2)" fill="#fff"><path d="M101.98 18.76c-1.791 0-3.355-.398-4.696-1.192-1.338-.795-2.387-1.897-3.148-3.304C93.38 12.856 93 11.228 93 9.38c0-1.846.379-3.475 1.14-4.885.757-1.408 1.806-2.509 3.147-3.304C98.625.397 100.189 0 101.98 0c1.791 0 3.336.397 4.682 1.192a8.293 8.293 0 013.148 3.304c.749 1.408 1.126 3.036 1.126 4.885 0 1.85-.377 3.478-1.126 4.886-.752 1.407-1.799 2.508-3.148 3.303-1.346.795-2.908 1.193-4.682 1.193v-.003zm0-2.98c1.706 0 3.066-.572 4.08-1.712 1.014-1.14 1.523-2.705 1.523-4.69 0-1.984-.507-3.549-1.523-4.689-1.014-1.14-2.377-1.71-4.08-1.71-1.703 0-3.071.57-4.093 1.71-1.025 1.14-1.535 2.705-1.535 4.69 0 1.984.513 3.549 1.535 4.689 1.024 1.14 2.387 1.711 4.093 1.711zm10.057 2.668V5.598h2.891l.256 2.177a4.516 4.516 0 011.701-1.813c.741-.45 1.616-.674 2.622-.674 1.57 0 2.788.503 3.657 1.502.87 1.002 1.306 2.47 1.306 4.405v7.256h-3.276v-6.944c0-1.104-.221-1.952-.665-2.54-.444-.588-1.134-.88-2.071-.88-.938 0-1.676.328-2.265.985-.589.657-.883 1.573-.883 2.746v6.633h-3.276l.003-.003zm17.142 0l-4.658-12.854h3.429l3.224 9.718 3.224-9.718h3.429l-4.682 12.854h-3.966zm14.559.312c-1.278 0-2.415-.276-3.404-.828a5.954 5.954 0 01-2.328-2.332c-.564-1.002-.844-2.159-.844-3.473 0-1.313.278-2.514.831-3.549a6.07 6.07 0 012.303-2.423c.981-.58 2.136-.867 3.466-.867 1.246 0 2.347.276 3.301.828a5.918 5.918 0 012.237 2.266c.537.958.807 2.026.807 3.2a17.904 17.904 0 01-.052 1.245h-9.645c.068 1 .414 1.787 1.036 2.356.621.571 1.376.855 2.265.855.665 0 1.223-.151 1.676-.452a2.81 2.81 0 001.011-1.179h3.325a6.173 6.173 0 01-1.188 2.217 5.91 5.91 0 01-2.047 1.567c-.81.381-1.728.572-2.75.572v-.003zm.024-10.778c-.801 0-1.509.23-2.123.687-.613.458-1.005 1.154-1.177 2.087h6.32c-.052-.848-.357-1.521-.921-2.02-.564-.5-1.262-.751-2.099-.751v-.003zm15.941 10.466l-4.658-12.854h3.429l3.224 9.718 3.224-9.718h3.429l-4.683 12.854h-3.965zM154.56 5.597h-3.276v12.854h3.276V5.597zm13.521 12.307h.196c.542 0 .861-.397 1.082-1.418l.098-.373 3.025-13.201c.098-.748-.049-1.046-.542-1.046h-.172l.172-.698h10.329v4.659h-.714c0-2.766-.294-3.936-5.952-3.936h-.567l-1.698 7.421c5.115-.024 5.508-.521 5.952-2.464h.714l-.567 2.464-.738 3.213h-.714c.441-1.943.294-2.44-4.821-2.465l-1.772 7.82h1.474c5.658 0 6.247-1.17 6.863-3.936h.714l-1.082 4.659h-11.46l.172-.699h.008zm16.33-9.914c-.074-.872-.196-1.145-.64-1.145h-.123l.172-.698h4.303l-.172.698h-.368c-.466 0-.836.199-.738 1.794l.689 8.793 4.328-8.07c.245-.447.295-.599-.049-.599-.837 0-1.376-.624-1.18-1.518.221-.872 1.057-1.496 1.894-1.496s1.303.649 1.107 1.468c-.148.65-.543 1.295-.96 2.068l-5.042 9.315h-2.384l-.837-10.61zm8.536 4.358c.861-3.762 4.303-6.599 8.067-6.599 3.442 0 5.483 2.216 4.87 4.932-.368 1.596-1.673 2.515-3.589 2.515-1.624 0-5.683-.447-6.912-.574-.368 2.716.911 4.832 3.862 4.832 1.943 0 3.589-.996 5.214-2.79l.441.273c-1.894 2.617-4.352 4.06-6.887 4.06-3.763 0-5.927-2.84-5.066-6.649zm7.426-.223c2.14 0 2.952-.348 3.246-1.695.515-2.191-.689-3.96-2.706-3.96-2.507 0-4.723 2.39-5.41 5.429-.024.074-.024.149-.049.223h4.919v.003zm4.601 5.779h.196c.491 0 .812-.348 1.107-1.496l1.722-7.421c.27-1.27.123-1.568-.417-1.568h-.172l.148-.698 2.804-.574h.616l-.442 1.943c1.107-1.419 2.854-2.34 4.723-2.34 2.336 0 3.666 1.12 2.878 4.506l-1.204 5.28c-.27 1.17-.491 2.167.171 2.167.417 0 .886-.373 1.401-1.245l.616.224c-.91 1.72-1.869 2.315-2.902 2.315-1.698 0-2.14-1.145-1.625-3.46l1.205-5.306c.491-2.117.049-3.411-1.722-3.411-1.87 0-3.516 1.369-4.009 3.362l-1.377 5.928c-.319 1.394-.196 1.794.368 1.794h.172l-.172.699h-4.254l.172-.699h-.003zM222.88 7.17l-.05-.148h-1.498l.196-.873h1.033c1.278 0 2.286-1.468 2.878-3.436h.812l-.788 3.436h1.919l-.196.873h-1.919l-2.017 8.843c-.221 1.02-.343 1.843.245 1.843.417 0 .886-.372 1.401-1.244l.616.223c-.91 1.72-1.869 2.316-2.902 2.316-1.625 0-2.091-1.046-1.698-3.138l1.968-8.692v-.002zm3.493 8.667c.172-.798.984-1.468 1.845-1.468.862 0 1.328.673 1.131 1.518-.318 1.418.69 2.39 2.459 2.39 1.673 0 3.074-.773 3.319-1.893.616-2.667-7.871-3.139-6.911-7.323.466-1.992 2.78-3.337 5.707-3.337 3.147 0 5.483 1.12 5.017 3.139-.196.822-.984 1.468-1.821 1.468-.836 0-1.351-.649-1.155-1.518.319-1.469-.739-2.366-2.434-2.366-1.523 0-2.804.823-3.025 1.869-.665 2.84 7.797 3.836 6.985 7.322-.441 1.943-2.878 3.362-5.977 3.362-3.319 0-5.581-1.22-5.14-3.163z"/></g><path d="M12.424 14h-1.092v-1.274h-.04c-.325.715-1.274 1.404-2.535 1.404-1.638 0-3.315-1.196-3.315-3.51S7.12 7.11 8.757 7.11c1.261 0 2.21.689 2.536 1.404h.039V4.77h1.091V14zm-5.89-3.38c0 1.677 1.21 2.509 2.405 2.509 1.223 0 2.431-.845 2.431-2.509s-1.208-2.509-2.43-2.509c-1.197 0-2.406.832-2.406 2.509zm10.568 3.51c-1.82 0-3.471-1.261-3.471-3.51 0-2.275 1.664-3.51 3.367-3.51 1.716 0 3.51 1.235 3.237 3.913h-5.564c.169 1.417 1.248 2.171 2.548 2.171.793 0 1.521-.286 2.015-.819l.546.559c-.611.754-1.586 1.196-2.678 1.196zm-2.431-3.939h4.602c-.078-1.391-1.131-2.132-2.262-2.132-1.118 0-2.171.715-2.34 2.132zM23.509 14l-2.873-6.76h1.13l2.25 5.408 2.249-5.408h1.13L24.524 14H23.51zm7.723.13c-1.82 0-3.471-1.261-3.471-3.51 0-2.275 1.664-3.51 3.367-3.51 1.716 0 3.51 1.235 3.237 3.913H28.8c.169 1.417 1.248 2.171 2.548 2.171.793 0 1.52-.286 2.015-.819l.546.559c-.611.754-1.586 1.196-2.678 1.196zM28.8 10.191h4.602c-.078-1.391-1.131-2.132-2.262-2.132-1.118 0-2.171.715-2.34 2.132zM35.614 14V4.77h1.092V14h-1.092zm5.813.13c-1.755 0-3.51-1.248-3.51-3.51 0-2.262 1.755-3.51 3.51-3.51s3.51 1.248 3.51 3.51c0 2.262-1.755 3.51-3.51 3.51zm-2.418-3.51c0 1.599 1.17 2.509 2.418 2.509 1.248 0 2.418-.91 2.418-2.509 0-1.599-1.17-2.509-2.418-2.509-1.248 0-2.418.91-2.418 2.509zm7.015 5.85V7.24h1.092v1.274h.04c.324-.715 1.273-1.404 2.534-1.404 1.638 0 3.315 1.196 3.315 3.51s-1.677 3.51-3.315 3.51c-1.26 0-2.21-.689-2.535-1.404h-.039v3.744h-1.092zm1.053-5.85c0 1.664 1.21 2.509 2.431 2.509 1.196 0 2.405-.832 2.405-2.509s-1.209-2.509-2.405-2.509c-1.222 0-2.43.845-2.43 2.509zm10.282 3.51c-1.82 0-3.471-1.261-3.471-3.51 0-2.275 1.664-3.51 3.367-3.51 1.716 0 3.51 1.235 3.237 3.913h-5.564c.169 1.417 1.248 2.171 2.548 2.171.793 0 1.52-.286 2.015-.819l.546.559c-.611.754-1.586 1.196-2.678 1.196zm-2.431-3.939h4.602c-.078-1.391-1.131-2.132-2.262-2.132-1.118 0-2.171.715-2.34 2.132zM68.398 14h-1.093v-1.274h-.039c-.325.715-1.274 1.404-2.535 1.404-1.638 0-3.315-1.196-3.315-3.51s1.677-3.51 3.315-3.51c1.261 0 2.21.689 2.535 1.404h.04V4.77h1.091V14zm-5.89-3.38c0 1.677 1.21 2.509 2.405 2.509 1.222 0 2.431-.845 2.431-2.509s-1.209-2.509-2.43-2.509c-1.197 0-2.406.832-2.406 2.509zM72.71 4.77h1.092v3.744h.039c.325-.715 1.274-1.404 2.535-1.404 1.638 0 3.315 1.196 3.315 3.51s-1.677 3.51-3.315 3.51c-1.261 0-2.21-.689-2.535-1.404h-.04V14H72.71V4.77zm1.053 5.85c0 1.664 1.209 2.509 2.43 2.509 1.197 0 2.406-.832 2.406-2.509s-1.21-2.509-2.405-2.509c-1.222 0-2.431.845-2.431 2.509zm7.889 5.85l1.118-2.535-2.847-6.695h1.13l2.25 5.408 2.249-5.408h1.13L83.81 14l-1.08 2.47h-1.078z" fill="#fff"/><defs><clipPath id="clip0_2002_2"><path fill="#fff" transform="translate(93)" d="M0 0h146v19H0z"/></clipPath></defs></svg>