<svg width="120" height="46" fill="none" xmlns="http://www.w3.org/2000/svg"><g clip-path="url(#clip0_1_73)" fill="#fff"><path fill-rule="evenodd" clip-rule="evenodd" d="M6.582 14.841V6.737h12.861l-.002 13.158-2.898.001-7.102-7.269-.348-.356-2.511 2.57z"/><path fill-rule="evenodd" clip-rule="evenodd" d="M0 23l9.094-9.307L18.184 23l-2.048 2.096-10.536.001v3.632L0 23z"/><path fill-rule="evenodd" clip-rule="evenodd" d="M6.582 39.263h7.92L12.34 37.05l-.347-.357 7.45-7.623v-2.969H6.583l-.001 13.162z"/><path fill-rule="evenodd" clip-rule="evenodd" d="M22.475 46l-9.093-9.306 9.093-9.307 2.05 2.098V40.27h3.55L22.474 46z"/><path fill-rule="evenodd" clip-rule="evenodd" d="M38.367 39.263l-12.86-.001.001-13.16h2.9l7.102 7.268.348.354.346-.354 2.163-2.214v8.107z"/><path fill-rule="evenodd" clip-rule="evenodd" d="M44.95 22.95l-9.094 9.306-9.093-9.305 2.05-2.096H39.35V17.22l5.6 5.73z"/><path fill-rule="evenodd" clip-rule="evenodd" d="M38.367 6.737v13.16h-12.86v-2.97l7.104-7.267.347-.355-.347-.356-2.164-2.212h7.92z"/><path fill-rule="evenodd" clip-rule="evenodd" d="M31.567 9.305l-9.091 9.303-2.051-2.098-.001-10.78-3.548.002L22.476 0l9.091 9.305zm23.823 4.366c1.927 0 2.616-1.023 2.616-2.25 0-1.32-.525-2.267-2.18-2.267h-1.491v4.517h1.055zm-4.161-6.99h4.997c2.889 0 4.96 1.73 4.96 4.667 0 2.584-2.071 4.76-5.905 4.76h-.947v3.718H51.23V6.68zM74.265 19.1l.873-2.268c1.145.408 1.98.595 3.396.595 1.546 0 2.254-.483 2.254-1.282 0-2.138-6.105-1.563-6.105-6.025 0-2.528 2.345-3.625 4.617-3.625 2.035 0 3.015.446 4.014.893l-.89 2.194c-.945-.278-1.727-.54-3.033-.54-1.306 0-1.692.503-1.692 1.06 0 1.747 6.216 1.747 6.216 5.932 0 2.88-2.69 3.997-5.343 3.997-2.108 0-3.344-.391-4.307-.93zM85.547 6.68h3.09v5.337h5.052V6.681h3.09v13.145h-3.09v-5.411h-5.053v5.41h-3.089V6.682zm17.518 7.009l1.292-5.056 1.289 5.056h-2.581zm3.399-7.008h-4.216l-4.324 13.145h3.198l1.217-3.848h4.034l1.218 3.848h3.197L106.465 6.68h-.001zm-40.561 7.008l1.29-5.056 1.291 5.056h-2.58zm3.399-7.008h-4.217L60.76 19.826h3.2l1.216-3.848h4.035l1.217 3.848h3.2L69.301 6.68zm28.53 22.202h3.101v1.044c.611-.476 1.948-1.31 3.304-1.31 3.174 0 3.397 1.785 3.397 4.139v6.496h-3.082v-6.23c0-1.423-.315-1.671-1.354-1.671-.93 0-1.764.305-2.264.551v7.35h-3.101V28.883h-.001zM64.56 34.17c0-3.285 1.977-5.3 5-5.3 3.393 0 4.914 1.978 4.914 5.207 0 3.23-2.133 5.172-5.07 5.172-3.148 0-4.844-1.979-4.844-5.08zm6.94-.092c0-1.596-.384-2.812-1.993-2.812-1.608 0-2.01 1.216-2.01 2.83 0 1.705.489 2.74 2.045 2.74s1.958-1.07 1.958-2.758zm21.643-9.655l2.825-.017.03 2.947-2.852.017-.003-2.947zm-.065 4.639h3.008v10.204h-3.008V29.062zM51.204 26.17h3.07v5.304h5.022V26.17h3.07v13.064h-3.07v-5.377h-5.022v5.377h-3.07V26.17zM120 31.132h-1.598c.036.219.112.932.112 1.168 0 2.21-2.123 3.455-4.476 3.455-.617 0-1.253-.06-1.869-.16l-.019.99h2.681c2.892 0 4.397.906 4.397 3.173 0 2.268-1.717 4.008-5.285 4.008s-4.841-.79-4.841-2.76c0-.772.676-1.58 1.408-2.016-.56-.335-.752-1.005-.752-1.478.021-.889.712-2.016 1.061-2.373-.715-.452-1.313-1.556-1.313-2.76 0-2.132 1.753-3.831 4.456-3.831 1.352 0 2.277.336 2.662.533l3.376-.255v2.306zm-3.145 9.062c0-.752-.716-.986-1.562-.986h-3.222a2.636 2.636 0 00-.212 1.047c0 .708.867 1.224 2.642 1.224 1.312 0 2.353-.572 2.353-1.285h.001zm-1.196-7.935c0-.867-.579-1.677-1.602-1.677-1.155 0-1.717.73-1.717 1.755 0 .87.562 1.561 1.679 1.561 1.006 0 1.64-.79 1.64-1.639zm-34.368 1.757c0-3.495 2.395-5.198 5.428-5.198.549 0 1.004.076 1.314.111v-3.74h3.053v14.104h-3.053v-.73c-.436.357-1.001.88-2.264.88-2.011 0-4.478-.992-4.478-5.426zm6.742 2.507v-5.106c-.31-.056-.71-.132-1.261-.132-1.734 0-2.449 1.012-2.449 2.786 0 2.226.97 2.788 2.049 2.788.548 0 1.204-.149 1.66-.337l.001.001z"/><path d="M79.57 25.157h-3.108V39.22h3.108V25.157z"/></g><defs><clipPath id="clip0_1_73"><path fill="#fff" d="M0 0h120v46H0z"/></clipPath></defs></svg>